<svg xmlns="http://www.w3.org/2000/svg" viewBox="0 0 32 32">
  <path fill="#2496ED" d="M18.8 13.8h3.3v-3h-3.3v3zm-4.4 0h3.3v-3h-3.3v3zm-4.3 0h3.3v-3H10v3zm-4.4 0h3.3v-3H5.7v3zm4.4-3.7h3.3V7H10v3zm4.3 0h3.3V7h-3.3v3zm4.4 0h3.3V7h-3.3v3zm2.8-6.4c-1.5-.9-4.9-.9-6.4 0-.3.2-.5.4-.8.6-.5-.4-1.1-.7-1.7-.9-1.5-.4-3.1-.4-4.6 0-.7.2-1.3.5-1.8.9-.3-.2-.5-.4-.8-.6-1.5-.9-4.9-.9-6.4 0C.9 4.7 0 6.3 0 8v.7c0 1.7.9 3.3 2.4 4.2 1.5.9 4.9.9 6.4 0 .3-.2.5-.4.8-.6.5.4 1.1.7 1.7.9.8.2 1.5.3 2.3.3.8 0 1.5-.1 2.3-.3.7-.2 1.3-.5 1.8-.9.3.2.5.4.8.6 1.5.9 4.9.9 6.4 0 1.5-.9 2.4-2.5 2.4-4.2V8c0-1.7-.9-3.3-2.4-4.2z"/>
</svg> 