<svg xmlns="http://www.w3.org/2000/svg" viewBox="0 0 32 32">
  <path fill="#326CE5" d="M15.9.15a2.11 2.11 0 0 0-.82.2L5.32 4.67a2.1 2.1 0 0 0-1.15 1.33L1.06 15.77a2.1 2.1 0 0 0 .3 1.75l7.37 9.03a2.1 2.1 0 0 0 1.64.82h11.26a2.1 2.1 0 0 0 1.64-.82l7.37-9.03a2.1 2.1 0 0 0 .3-1.75l-3.11-9.77a2.1 2.1 0 0 0-1.15-1.33L16.92.35a2.11 2.11 0 0 0-1.02-.2zm.08 3.16a.5.5 0 0 1 .24.05l8.32 3.85a.5.5 0 0 1 .27.32l2.65 8.34a.5.5 0 0 1-.07.42l-6.28 7.7a.5.5 0 0 1-.39.2H10.28a.5.5 0 0 1-.39-.2l-6.28-7.7a.5.5 0 0 1-.07-.42l2.65-8.34a.5.5 0 0 1 .27-.32l8.32-3.85a.5.5 0 0 1 .24-.05zm.02 3.64c-1.78 0-3.23 1.45-3.23 3.23 0 1.78 1.45 3.23 3.23 3.23 1.78 0 3.23-1.45 3.23-3.23 0-1.78-1.45-3.23-3.23-3.23zm7.53 4.59a1.62 1.62 0 0 0-1.62 1.62c0 .89.73 1.62 1.62 1.62.89 0 1.62-.73 1.62-1.62 0-.89-.73-1.62-1.62-1.62zm-15.06 0a1.62 1.62 0 0 0-1.62 1.62c0 .89.73 1.62 1.62 1.62.89 0 1.62-.73 1.62-1.62 0-.89-.73-1.62-1.62-1.62zm7.53 4.59c-1.78 0-3.23 1.45-3.23 3.23 0 1.78 1.45 3.23 3.23 3.23 1.78 0 3.23-1.45 3.23-3.23 0-1.78-1.45-3.23-3.23-3.23z"/>
</svg> 