<svg xmlns="http://www.w3.org/2000/svg" viewBox="0 0 32 32">
  <path fill="#00ED64" d="M15.9.087l.854 1.604c.192.296.4.558.645.802.715.715 1.394 1.464 2.004 2.266 1.447 1.9 2.423 4.01 3.12 6.292.418 1.394.645 2.824.662 4.27.07 4.323-1.412 8.035-4.4 11.12-.488.488-1.01.94-1.57 1.342-.296 0-.436-.227-.558-.436-.227-.383-.366-.802-.436-1.217-.174-.975-.174-1.975-.174-2.984v-.174l-.436.35c-.488.436-1.006.715-1.586.93-1.07.383-2.162.558-3.294.436-.934-.087-1.79-.35-2.607-.802-1.055-.584-1.834-1.4-2.423-2.423-.94-1.6-1.395-3.294-1.395-5.126 0-.977.174-1.885.488-2.793.76-2.126 2.075-3.767 4.01-4.922.558-.313 1.15-.558 1.79-.715.937-.227 1.885-.227 2.824-.052.13.035.244.07.366.087.017-.07.017-.14.035-.227.314-1.517.627-3.025 1.045-4.542.052-.174.087-.383.14-.558.174-.662.453-1.306.767-1.9.662-1.394 1.517-2.607 2.546-3.694.017-.017.035-.053.053-.07.174-.174.366-.383.558-.567zm-3.467 15.26l-.174.157c-.384.366-.732.732-1.01 1.15-.662 1.048-.94 2.162-.87 3.38.07 1.048.4 1.994 1.063 2.82.184.227.384.435.627.584.07.052.14.087.192.14.174.087.314.052.453-.07.035-.035.07-.087.122-.122.174-.174.297-.383.366-.61.157-.435.297-.87.28-1.342v-.313c0-.662-.017-1.306 0-1.95 0-.558.07-1.133.157-1.69v-.157c-.105-.017-.192-.017-.28-.052-.244-.07-.453-.174-.662-.313-.21-.14-.366-.296-.558-.453v-.157h.052z"/>
</svg> 