<svg xmlns="http://www.w3.org/2000/svg" viewBox="0 0 32 32">
  <path fill="#DC382D" d="M32 14.1c0-.9-3.5-1.2-3.8-1.2-.3-.1-5.4-2.1-5.7-2.2-.2-.1-1.2-.4-1.8-.1-.6.3-5.5 2.1-5.9 2.3-.4.2-1.6.7-1.6.7s-4.8-1.8-5.2-2c-.4-.2-1.7-.6-2.4-.4-.6.2-5.2 2-5.5 2.1C0 13.3 0 13.5 0 13.7c0 .2.1.3.3.4.2.1 5.5 2.1 5.8 2.2.3.1 1.5.5 2.3.3.8-.2 5.1-2 5.5-2.1.4-.1 1.7-.7 1.7-.7s4.6 1.8 5 1.9c.4.1 1.7.6 2.5.3.8-.3 5.3-2 5.6-2.2.3-.1 3.3-.4 3.3-1.3v.6zm0 4.3c0-.9-3.5-1.2-3.8-1.2-.3-.1-5.4-2.1-5.7-2.2-.2-.1-1.2-.4-1.8-.1-.6.3-5.5 2.1-5.9 2.3-.4.2-1.6.7-1.6.7s-4.8-1.8-5.2-2c-.4-.2-1.7-.6-2.4-.4-.6.2-5.2 2-5.5 2.1C0 17.6 0 17.8 0 18c0 .2.1.3.3.4.2.1 5.5 2.1 5.8 2.2.3.1 1.5.5 2.3.3.8-.2 5.1-2 5.5-2.1.4-.1 1.7-.7 1.7-.7s4.6 1.8 5 1.9c.4.1 1.7.6 2.5.3.8-.3 5.3-2 5.6-2.2.3-.1 3.3-.4 3.3-1.3v.6z"/>
</svg> 