<svg xmlns="http://www.w3.org/2000/svg" viewBox="0 0 32 32">
  <path fill="#000000" d="M15.124 5.3a.832.832 0 1 1-1.664 0 .832.832 0 0 1 1.664 0zm-5.617 2.614a.832.832 0 1 1-1.664 0 .832.832 0 0 1 1.664 0zm11.234 0a.832.832 0 1 1-1.664 0 .832.832 0 0 1 1.664 0zM7.096 13.74a.832.832 0 1 1-1.664 0 .832.832 0 0 1 1.664 0zm17.808 0a.832.832 0 1 1-1.664 0 .832.832 0 0 1 1.664 0zM9.71 19.864a.832.832 0 1 1-1.664 0 .832.832 0 0 1 1.664 0zm12.58 0a.832.832 0 1 1-1.664 0 .832.832 0 0 1 1.664 0zm-2.614 5.617a.832.832 0 1 1-1.664 0 .832.832 0 0 1 1.664 0zm-7.352 0a.832.832 0 1 1-1.664 0 .832.832 0 0 1 1.664 0zm3.676 2.614a.832.832 0 1 1-1.664 0 .832.832 0 0 1 1.664 0zM16 0C7.164 0 0 7.164 0 16s7.164 16 16 16 16-7.164 16-16S24.836 0 16 0zm10.732 16c0 .89-.109 1.754-.312 2.582l-2.643-.43a.832.832 0 0 1-.698-.946l.43-2.643a13.146 13.146 0 0 0 .223-2.582c0-.89-.109-1.754-.312-2.582l2.643-.43a.832.832 0 0 1 .946.698l.43 2.643c.203.828.312 1.692.312 2.582zm-21.464 0c0-.89.109-1.754.312-2.582l2.643.43a.832.832 0 0 1 .698.946l-.43 2.643a13.146 13.146 0 0 0-.223 2.582c0 .89.109 1.754.312 2.582l-2.643.43a.832.832 0 0 1-.946-.698l-.43-2.643A13.146 13.146 0 0 1 5.268 16zM16 27.464c-6.332 0-11.464-5.132-11.464-11.464S9.668 4.536 16 4.536s11.464 5.132 11.464 11.464S22.332 27.464 16 27.464z"/>
</svg> 